<svg width="25" height="17" viewBox="0 0 25 17" fill="none" xmlns="http://www.w3.org/2000/svg">
<path d="M17.5208 8.5013C19.1883 8.5013 20.5296 7.14797 20.5296 5.48047C20.5296 3.81297 19.1883 2.45964 17.5208 2.45964C15.8533 2.45964 14.5 3.81297 14.5 5.48047C14.5 7.14797 15.8533 8.5013 17.5208 8.5013ZM8.45833 7.29297C10.4642 7.29297 12.0712 5.6738 12.0712 3.66797C12.0712 1.66214 10.4642 0.0429688 8.45833 0.0429688C6.4525 0.0429688 4.83333 1.66214 4.83333 3.66797C4.83333 5.6738 6.4525 7.29297 8.45833 7.29297ZM17.5208 10.918C15.3096 10.918 10.875 12.0296 10.875 14.2409V16.9596H24.1667V14.2409C24.1667 12.0296 19.7321 10.918 17.5208 10.918ZM8.45833 9.70964C5.64292 9.70964 0 11.1234 0 13.9388V16.9596H8.45833V14.2409C8.45833 13.2138 8.85708 11.4134 11.3221 10.048C10.2708 9.83047 9.25583 9.70964 8.45833 9.70964Z" fill="#3C3E4B"/>
</svg>
