<svg width="20" height="20" viewBox="0 0 20 20" fill="none" xmlns="http://www.w3.org/2000/svg">
<g clip-path="url(#clip0)">
<path d="M18.8758 8.43092L18.907 8.43775H5.52391L9.73106 4.22133C9.93708 4.01547 10.0501 3.73661 10.0501 3.44393C10.0501 3.15125 9.93708 2.87433 9.73106 2.66799L9.07643 2.01303C8.87057 1.80718 8.59626 1.69336 8.30374 1.69336C8.01106 1.69336 7.73659 1.80637 7.53074 2.01222L0.318866 9.22344C0.112199 9.43011 -0.000808652 9.70539 4.35632e-06 9.99824C-0.000808652 10.2927 0.112199 10.5682 0.318866 10.7745L7.53074 17.9864C7.73659 18.1921 8.0109 18.3052 8.30374 18.3052C8.59626 18.3052 8.87057 18.1919 9.07643 17.9864L9.73106 17.3314C9.93708 17.1259 10.0501 16.8514 10.0501 16.5587C10.0501 16.2662 9.93708 16.0062 9.73106 15.8005L5.47643 11.5605H18.8907C19.4935 11.5605 20 11.041 20 10.4386V9.51222C20 8.90978 19.4785 8.43092 18.8758 8.43092Z" fill="#3C3E4B"/>
</g>
<defs>
<clipPath id="clip0">
<rect width="20" height="20" fill="white"/>
</clipPath>
</defs>
</svg>
