<svg width="56" height="54" viewBox="0 0 56 54" fill="none" xmlns="http://www.w3.org/2000/svg">
<g filter="url(#filter0_d)">
<rect x="12" y="12" width="32" height="30" rx="12" fill="#FF9E45"/>
<path d="M34.2315 19.4785C33.4019 18.6504 32.0586 18.6504 31.229 19.4785L30.4775 20.2342L22.477 28.2304L22.46 28.2475C22.4559 28.2516 22.4559 28.256 22.4515 28.256C22.443 28.2688 22.4303 28.2814 22.4219 28.2941C22.4219 28.2984 22.4175 28.2984 22.4175 28.3026C22.409 28.3154 22.4049 28.3239 22.3963 28.3366C22.3921 28.3409 22.3921 28.345 22.3879 28.3494C22.3836 28.3621 22.3794 28.3706 22.375 28.3834C22.375 28.3875 22.3709 28.3875 22.3709 28.3919L20.5958 33.7297C20.5438 33.8816 20.5833 34.0499 20.6977 34.1627C20.7781 34.242 20.8865 34.2864 20.9992 34.286C21.0453 34.2852 21.091 34.278 21.1351 34.2647L26.4688 32.4854C26.4729 32.4854 26.4729 32.4854 26.4773 32.4813C26.4907 32.4773 26.5036 32.4716 26.5154 32.4642C26.5188 32.4638 26.5217 32.4623 26.5241 32.4601C26.5367 32.4516 26.5537 32.4429 26.5664 32.4344C26.5791 32.4261 26.5919 32.4133 26.6047 32.4048C26.6089 32.4004 26.6131 32.4004 26.6131 32.3963C26.6175 32.392 26.626 32.3879 26.6302 32.3793L35.3822 23.6273C36.2103 22.7977 36.2103 21.4544 35.3822 20.625L34.2315 19.4785ZM26.3329 31.4874L23.3774 28.532L30.7747 21.1347L33.7303 24.0901L26.3329 31.4874ZM22.9611 29.3176L25.5431 31.8995L21.6659 33.1904L22.9611 29.3176ZM34.7835 23.0327L34.3334 23.4871L31.3777 20.5315L31.8322 20.0772C32.3294 19.5804 33.1353 19.5804 33.6327 20.0772L34.7877 21.2322C35.2811 21.7316 35.2793 22.5357 34.7835 23.0327Z" fill="white"/>
</g>
<defs>
<filter id="filter0_d" x="0" y="0" width="56" height="54" filterUnits="userSpaceOnUse" color-interpolation-filters="sRGB">
<feFlood flood-opacity="0" result="BackgroundImageFix"/>
<feColorMatrix in="SourceAlpha" type="matrix" values="0 0 0 0 0 0 0 0 0 0 0 0 0 0 0 0 0 0 127 0"/>
<feOffset/>
<feGaussianBlur stdDeviation="6"/>
<feColorMatrix type="matrix" values="0 0 0 0 1 0 0 0 0 0.619608 0 0 0 0 0.270588 0 0 0 0.6 0"/>
<feBlend mode="normal" in2="BackgroundImageFix" result="effect1_dropShadow"/>
<feBlend mode="normal" in="SourceGraphic" in2="effect1_dropShadow" result="shape"/>
</filter>
</defs>
</svg>
