<svg width="32" height="32" viewBox="0 0 32 32" fill="none" xmlns="http://www.w3.org/2000/svg">
<circle cx="16" cy="16" r="15.25" stroke="#FF9E45" stroke-width="1.5"/>
<path d="M13 23.75C13.9665 23.75 14.75 22.9665 14.75 22V18C14.75 17.8619 14.8619 17.75 15 17.75H17C17.1381 17.75 17.25 17.8619 17.25 18V22C17.25 22.9665 18.0335 23.75 19 23.75H22C22.9665 23.75 23.75 22.9665 23.75 22V15.832C23.75 15.7867 23.7867 15.75 23.832 15.75C25.2818 15.75 25.9679 13.9621 24.8902 12.9922L17.1707 6.0446C16.5052 5.44562 15.4948 5.44562 14.8293 6.0446L7.10977 12.9922C6.03212 13.9621 6.7182 15.75 8.16804 15.75C8.21331 15.75 8.25 15.7867 8.25 15.832V22C8.25 22.9665 9.0335 23.75 10 23.75H13Z" stroke="#FF9E45" stroke-width="1.5"/>
</svg>
