<svg width="20" height="20" viewBox="0 0 20 20" fill="none" xmlns="http://www.w3.org/2000/svg">
<g clip-path="url(#clip0)">
<path d="M18.8757 8.43092L18.9069 8.43775H5.5238L9.73095 4.22133C9.93697 4.01547 10.05 3.73661 10.05 3.44393C10.05 3.15125 9.93697 2.87433 9.73095 2.66799L9.07632 2.01303C8.87047 1.80718 8.59616 1.69336 8.30364 1.69336C8.01095 1.69336 7.73648 1.80637 7.53063 2.01222L0.318759 9.22344C0.112093 9.43011 -0.000915463 9.70539 -0.000102455 9.99824C-0.000915463 10.2927 0.112093 10.5682 0.318759 10.7745L7.53063 17.9864C7.73648 18.1921 8.01079 18.3052 8.30364 18.3052C8.59616 18.3052 8.87047 18.1919 9.07632 17.9864L9.73095 17.3314C9.93697 17.1259 10.05 16.8514 10.05 16.5587C10.05 16.2662 9.93697 16.0062 9.73095 15.8005L5.47632 11.5605H18.8906C19.4934 11.5605 19.9999 11.041 19.9999 10.4386V9.51222C19.9999 8.90978 19.4784 8.43092 18.8757 8.43092Z" fill="#3C3E4B"/>
</g>
<defs>
<clipPath id="clip0">
<rect width="20" height="20" fill="white"/>
</clipPath>
</defs>
</svg>
