<svg width="25" height="23" viewBox="0 0 25 23" fill="none" xmlns="http://www.w3.org/2000/svg">
<path d="M23.6419 5.34385V20.4592C23.6419 21.3154 22.95 22.0003 22.0852 22.0003H2.55663C1.69183 22.0003 1 21.2998 1 20.4592V5.34385C1 4.48767 1.69183 3.80273 2.55663 3.80273H4.53779V5.20375C4.53779 5.59292 4.69503 5.93539 4.9466 6.20002C5.19818 6.44909 5.55982 6.60476 5.95291 6.60476C6.73908 6.60476 7.36803 5.98209 7.36803 5.20375V3.80273H8.78314V5.20375C8.78314 5.59292 8.94038 5.93539 9.19195 6.20002C9.44353 6.44909 9.80517 6.60476 10.1983 6.60476C10.9844 6.60476 11.6134 5.98209 11.6134 5.20375V3.80273H13.0285V5.20375C13.0285 5.59292 13.1857 5.93539 13.4373 6.20002C13.6889 6.44909 14.0505 6.60476 14.4436 6.60476C15.2298 6.60476 15.8587 5.98209 15.8587 5.20375V3.80273H17.2738V5.20375C17.2738 5.59292 17.4311 5.93539 17.6827 6.20002C17.9342 6.44909 18.2959 6.60476 18.689 6.60476C19.4751 6.60476 20.1041 5.98209 20.1041 5.20375V3.80273H22.0852C22.95 3.80273 23.6419 4.50324 23.6419 5.34385Z" stroke="#3C3E4B" stroke-miterlimit="10" stroke-linecap="round"/>
<path d="M20.0569 13.6093H17.321C16.9122 13.6093 16.5663 13.2824 16.5663 12.8621V10.1535C16.5663 9.74872 16.8965 9.40625 17.321 9.40625H20.0569C20.4657 9.40625 20.8116 9.73315 20.8116 10.1535V12.8621C20.8116 13.2824 20.4814 13.6093 20.0569 13.6093Z" stroke="#3C3E4B" stroke-miterlimit="10" stroke-linecap="round"/>
<path d="M7.32085 13.6093H4.58496C4.17615 13.6093 3.83023 13.2824 3.83023 12.8621V10.1535C3.83023 9.74872 4.16042 9.40625 4.58496 9.40625H7.32085C7.72966 9.40625 8.07558 9.73315 8.07558 10.1535V12.8621C8.07558 13.2824 7.74539 13.6093 7.32085 13.6093Z" stroke="#3C3E4B" stroke-miterlimit="10" stroke-linecap="round"/>
<path d="M13.6889 13.6093H10.953C10.5442 13.6093 10.1983 13.2824 10.1983 12.8621V10.1535C10.1983 9.74872 10.5285 9.40625 10.953 9.40625H13.6889C14.0977 9.40625 14.4436 9.73315 14.4436 10.1535V12.8621C14.4436 13.2824 14.1134 13.6093 13.6889 13.6093Z" stroke="#3C3E4B" stroke-miterlimit="10" stroke-linecap="round"/>
<path d="M20.0569 19.2138H17.321C16.9122 19.2138 16.5663 18.8869 16.5663 18.4666V15.7579C16.5663 15.3532 16.8965 15.0107 17.321 15.0107H20.0569C20.4657 15.0107 20.8116 15.3376 20.8116 15.7579V18.4666C20.8116 18.8869 20.4814 19.2138 20.0569 19.2138Z" stroke="#3C3E4B" stroke-miterlimit="10" stroke-linecap="round"/>
<path d="M7.32085 19.2138H4.58496C4.17615 19.2138 3.83023 18.8869 3.83023 18.4666V15.7579C3.83023 15.3532 4.16042 15.0107 4.58496 15.0107H7.32085C7.72966 15.0107 8.07558 15.3376 8.07558 15.7579V18.4666C8.07558 18.8869 7.74539 19.2138 7.32085 19.2138Z" stroke="#3C3E4B" stroke-miterlimit="10" stroke-linecap="round"/>
<path d="M13.6889 19.2138H10.953C10.5442 19.2138 10.1983 18.8869 10.1983 18.4666V15.7579C10.1983 15.3532 10.5285 15.0107 10.953 15.0107H13.6889C14.0977 15.0107 14.4436 15.3376 14.4436 15.7579V18.4666C14.4436 18.8869 14.1134 19.2138 13.6889 19.2138Z" stroke="#3C3E4B" stroke-miterlimit="10" stroke-linecap="round"/>
<path d="M20.1041 2.40101V5.20304C20.1041 5.98138 19.4752 6.60405 18.689 6.60405C18.2959 6.60405 17.95 6.44838 17.6827 6.19931C17.4311 5.95024 17.2739 5.59221 17.2739 5.20304V2.40101C17.2739 1.62267 17.9028 1 18.689 1C19.4752 1 20.1041 1.62267 20.1041 2.40101Z" stroke="#3C3E4B" stroke-miterlimit="10" stroke-linecap="round"/>
<path d="M15.8587 2.40101V5.20304C15.8587 5.98138 15.2298 6.60405 14.4436 6.60405C14.0505 6.60405 13.7046 6.44838 13.4373 6.19931C13.1857 5.93468 13.0285 5.59221 13.0285 5.20304V2.40101C13.0285 1.62267 13.6574 1 14.4436 1C15.2298 1 15.8587 1.62267 15.8587 2.40101Z" stroke="#3C3E4B" stroke-miterlimit="10" stroke-linecap="round"/>
<path d="M11.6134 2.40101V5.20304C11.6134 5.98138 10.9845 6.60405 10.1983 6.60405C9.8052 6.60405 9.45928 6.44838 9.19198 6.19931C8.94041 5.93468 8.78317 5.59221 8.78317 5.20304V2.40101C8.78317 1.62267 9.41211 1 10.1983 1C10.9845 1 11.6134 1.62267 11.6134 2.40101Z" stroke="#3C3E4B" stroke-miterlimit="10" stroke-linecap="round"/>
<path d="M7.36805 2.40101V5.20304C7.36805 5.98138 6.7391 6.60405 5.95293 6.60405C5.55984 6.60405 5.21392 6.44838 4.94662 6.19931C4.69505 5.93468 4.53781 5.59221 4.53781 5.20304V2.40101C4.53781 1.62267 5.16675 1 5.95293 1C6.7391 1 7.36805 1.62267 7.36805 2.40101Z" stroke="#3C3E4B" stroke-miterlimit="10" stroke-linecap="round"/>
</svg>
