<svg xmlns="http://www.w3.org/2000/svg" viewBox="0 0 951.79 293.62"><defs><style>.cls-1{fill:#ff881b;}.cls-2{fill:#ffdab7;}</style></defs><g id="Layer_2" data-name="Layer 2"><g id="Layer_4" data-name="Layer 4"><path class="cls-1" d="M442.91,75.58C425,80.72,377.51,97,340.7,143.72c-50,63.45-42.66,135.38-40.88,149.9-12.88-28.78-42.25-83.76-102.21-129.46C116.57,102.4,30.83,96.62,0,96A821.71,821.71,0,0,1,183,57.9a45.23,45.23,0,0,0,78.8-3.43A821.8,821.8,0,0,1,442.91,75.58Z"/><circle class="cls-2" cx="221.46" cy="34.07" r="34.07"/><path d="M452.77,251.89H435.24V215.44H401.07v36.45H383.54V166.83h17.53V201.3h34.17V166.83h17.53Z"/><path d="M496.06,253.06q-13.9,0-22.64-8.53t-8.73-22.73v-1.63a38.08,38.08,0,0,1,3.68-17,27,27,0,0,1,10.42-11.57,29.25,29.25,0,0,1,15.4-4.06q13,0,20.41,8.18t7.45,23.19v6.9H481.8a15.7,15.7,0,0,0,4.94,9.93,14.92,14.92,0,0,0,10.43,3.74q9.75,0,15.24-7.07l8.3,9.29a25.4,25.4,0,0,1-10.28,8.38A33.86,33.86,0,0,1,496.06,253.06Zm-1.93-51.94a10.55,10.55,0,0,0-8.15,3.41q-3.12,3.41-4,9.74h23.48v-1.35c-.08-3.76-1.09-6.66-3-8.72S497.71,201.12,494.13,201.12Z"/><path d="M531.52,172.32a8.3,8.3,0,0,1,2.54-6.25,11,11,0,0,1,13.81,0,8.93,8.93,0,0,1,0,12.56,10.81,10.81,0,0,1-13.73,0A8.26,8.26,0,0,1,531.52,172.32Zm17.93,79.57H532.51V188.68h16.94Z"/><path d="M581.17,251.89H564.23V162.16h16.94Z"/><path d="M595,172.32a8.34,8.34,0,0,1,2.54-6.25,11,11,0,0,1,13.82,0,8.92,8.92,0,0,1,0,12.56,10.81,10.81,0,0,1-13.73,0A8.29,8.29,0,0,1,595,172.32Zm17.93,79.57H596V188.68h16.94Z"/><path d="M624.35,219.82q0-14.55,6.92-23.43t18.66-8.88q10.4,0,16.19,7.13l.7-6h15.3v61.11a27,27,0,0,1-3.77,14.43,24.13,24.13,0,0,1-10.6,9.34,37.31,37.31,0,0,1-16,3.22A34.66,34.66,0,0,1,638.19,274a24,24,0,0,1-10-7.16l7.48-10.28a19.79,19.79,0,0,0,15.3,7.07q6.72,0,10.46-3.59c2.49-2.4,3.74-5.79,3.74-10.2v-3.38q-5.83,6.6-15.36,6.6a22.36,22.36,0,0,1-18.43-8.91q-7-8.91-7-23.63Zm16.88,1.25q0,8.61,3.45,13.49a11,11,0,0,0,9.46,4.89q7.71,0,11-5.8V207q-3.39-5.79-10.92-5.79a11.06,11.06,0,0,0-9.56,5Q641.23,211.19,641.23,221.07Z"/><path d="M795.22,251.89H777.7V215.44H743.52v36.45H726V166.83h17.52V201.3H777.7V166.83h17.52Z"/><path d="M846.05,251.89a18.72,18.72,0,0,1-1.7-5.67,20.42,20.42,0,0,1-16,6.84q-9.28,0-15.39-5.38a17.27,17.27,0,0,1-6.1-13.55q0-10,7.44-15.42t21.53-5.44h7.77v-3.62a10.41,10.41,0,0,0-2.25-7c-1.5-1.75-3.86-2.63-7.1-2.63a10,10,0,0,0-6.68,2.05,6.93,6.93,0,0,0-2.43,5.61H808.31a17,17,0,0,1,3.39-10.17,22.36,22.36,0,0,1,9.58-7.33,34.91,34.91,0,0,1,13.9-2.66q11.69,0,18.55,5.87t6.86,16.51v27.39q.06,9,2.51,13.62v1Zm-14-11.74a14.57,14.57,0,0,0,6.9-1.67,10.93,10.93,0,0,0,4.67-4.47V223.15h-6.31q-12.68,0-13.49,8.76l-.06,1a6.75,6.75,0,0,0,2.22,5.2A8.58,8.58,0,0,0,832.08,240.15Z"/><path d="M909.08,204.51A46.16,46.16,0,0,0,903,204q-9.59,0-12.57,6.49v41.36H873.56V188.68h16l.47,7.54q5.09-8.72,14.08-8.71a17.81,17.81,0,0,1,5.25.76Z"/><path d="M940.34,173.14v15.54h10.8v12.38h-10.8v31.55c0,2.34.44,4,1.34,5s2.61,1.52,5.14,1.52a26.4,26.4,0,0,0,5-.41v12.8a34.91,34.91,0,0,1-10.23,1.52q-17.76,0-18.11-17.94V201.06h-9.23V188.68h9.23V173.14Z"/></g></g></svg>