<svg width="24" height="20" viewBox="0 0 24 20" fill="none" xmlns="http://www.w3.org/2000/svg">
<path d="M21.5015 19.2049H2.51353C1.67268 19.2049 1 18.5203 1 17.6645V2.54041C1 1.68463 1.67268 1 2.51353 1H21.4862C22.3271 1 22.9997 1.68463 22.9997 2.54041V17.6489C23.015 18.5203 22.3424 19.2049 21.5015 19.2049Z" stroke="#3C3E4B" stroke-miterlimit="10" stroke-linecap="round"/>
<path d="M9.25562 16.4042C12.2953 16.4042 14.7594 13.8963 14.7594 10.8027C14.7594 7.70905 12.2953 5.20117 9.25562 5.20117C6.21598 5.20117 3.75186 7.70905 3.75186 10.8027C3.75186 13.8963 6.21598 16.4042 9.25562 16.4042Z" stroke="#3C3E4B" stroke-miterlimit="10" stroke-linecap="round"/>
<path d="M9.25566 13.6035C10.7755 13.6035 12.0075 12.3495 12.0075 10.8027C12.0075 9.25589 10.7755 8.00195 9.25566 8.00195C7.73584 8.00195 6.50378 9.25589 6.50378 10.8027C6.50378 12.3495 7.73584 13.6035 9.25566 13.6035Z" stroke="#3C3E4B" stroke-miterlimit="10" stroke-linecap="round"/>
<path d="M19.621 5.20121H16.7927C16.4411 5.20121 16.1506 4.90557 16.1506 4.5477V3.06952C16.1506 2.71165 16.4411 2.41602 16.7927 2.41602H19.621C19.9727 2.41602 20.2631 2.71165 20.2631 3.06952V4.5477C20.2631 4.90557 19.9727 5.20121 19.621 5.20121Z" stroke="#3C3E4B" stroke-miterlimit="10" stroke-linecap="round"/>
</svg>
