<svg width="23" height="23" viewBox="0 0 23 23" fill="none" xmlns="http://www.w3.org/2000/svg">
<path d="M2.69125 10.0569C1.56373 10.0569 0.943601 8.46986 1.6342 7.36375C3.9738 3.64467 7.59595 1.40039 11.5 1.40039C15.404 1.40039 19.0262 3.6607 21.3657 7.36375C22.0564 8.45383 21.4362 10.0569 20.3087 10.0569H2.69125Z" stroke="#3C3E4B" stroke-miterlimit="10" stroke-linecap="round"/>
<path d="M19.1108 10.0566H3.88928V14.3849H19.1108V10.0566Z" stroke="#3C3E4B" stroke-miterlimit="10" stroke-linecap="round"/>
<path d="M19.7731 17.2712H3.22683C2.88857 17.2712 2.62079 16.9667 2.62079 16.5819V15.0751C2.62079 14.6903 2.88857 14.3857 3.22683 14.3857H19.7731C20.1114 14.3857 20.3792 14.6903 20.3792 15.0751V16.5819C20.3792 16.9667 20.1114 17.2712 19.7731 17.2712Z" stroke="#3C3E4B" stroke-miterlimit="10" stroke-linecap="round"/>
<path d="M18.8571 21.5988H4.14296C2.60672 21.5988 1.35236 20.172 1.35236 18.4247V17.9598C1.35236 17.5751 1.62014 17.2705 1.9584 17.2705H21.0416C21.3799 17.2705 21.6477 17.5751 21.6477 17.9598V18.4247C21.6477 20.172 20.3933 21.5988 18.8571 21.5988Z" stroke="#3C3E4B" stroke-miterlimit="10" stroke-linecap="round"/>
<path d="M2.62079 11.6602C3.88924 11.6602 3.88924 12.622 5.1577 12.622C6.42616 12.622 6.42616 11.6602 7.69461 11.6602C8.96307 11.6602 8.96307 12.622 10.2315 12.622C11.5 12.622 11.5 11.6602 12.7684 11.6602C14.0369 11.6602 14.0369 12.622 15.3053 12.622C16.5738 12.622 16.5738 11.6602 17.8423 11.6602C19.1107 11.6602 19.1107 12.622 20.3792 12.622" stroke="#3C3E4B" stroke-miterlimit="10" stroke-linecap="round"/>
<path d="M15.5591 4.71875L16.5738 5.87295" stroke="#3C3E4B" stroke-miterlimit="10" stroke-linecap="round"/>
<path d="M13.5295 7.02734L14.5443 8.18154" stroke="#3C3E4B" stroke-miterlimit="10" stroke-linecap="round"/>
<path d="M6.42618 4.71875L7.44094 5.87295" stroke="#3C3E4B" stroke-miterlimit="10" stroke-linecap="round"/>
<path d="M8.45572 7.02734L9.47048 8.18154" stroke="#3C3E4B" stroke-miterlimit="10" stroke-linecap="round"/>
<path d="M10.4852 4.71875L11.5 5.87295" stroke="#3C3E4B" stroke-miterlimit="10" stroke-linecap="round"/>
</svg>
