<svg width="26" height="20" viewBox="0 0 26 20" fill="none" xmlns="http://www.w3.org/2000/svg">
<path d="M13.0667 16.0833C16.3988 16.0833 19.1 13.382 19.1 10.0499C19.1 6.71782 16.3988 4.0166 13.0667 4.0166C9.73457 4.0166 7.03336 6.71782 7.03336 10.0499C7.03336 13.382 9.73457 16.0833 13.0667 16.0833Z" stroke="#3C3E4B" stroke-miterlimit="10" stroke-linecap="round"/>
<path d="M13.0667 13.0665C14.7327 13.0665 16.0833 11.7159 16.0833 10.0499C16.0833 8.38381 14.7327 7.0332 13.0667 7.0332C11.4006 7.0332 10.05 8.38381 10.05 10.0499C10.05 11.7159 11.4006 13.0665 13.0667 13.0665Z" stroke="#3C3E4B" stroke-miterlimit="10" stroke-linecap="round"/>
<path d="M13.0667 19.1C19.7309 19.1 25.1333 15.0482 25.1333 10.05C25.1333 5.05182 19.7309 1 13.0667 1C6.40243 1 1 5.05182 1 10.05C1 15.0482 6.40243 19.1 13.0667 19.1Z" stroke="#3C3E4B" stroke-miterlimit="10" stroke-linecap="round"/>
</svg>
