<svg width="22" height="27" viewBox="0 0 22 27" fill="none" xmlns="http://www.w3.org/2000/svg">
<path d="M18.6384 2.98477V21.9232C18.6384 22.8155 17.9447 23.5232 17.1033 23.5232H2.90407C2.04799 23.5232 1.36902 22.8001 1.36902 21.9232V2.98477C1.36902 2.09246 2.06275 1.38477 2.90407 1.38477H17.0886C17.9447 1.38477 18.6384 2.10784 18.6384 2.98477Z" stroke="#3C3E4B" stroke-miterlimit="10" stroke-linecap="round"/>
<path d="M20.631 5.06191V24.0004C20.631 24.8927 19.9373 25.6004 19.096 25.6004H4.89669C4.0406 25.6004 3.36163 24.8773 3.36163 24.0004V23.5235H17.1033C17.9594 23.5235 18.6384 22.8004 18.6384 21.9235V3.46191H19.096C19.9373 3.46191 20.631 4.18499 20.631 5.06191Z" stroke="#3C3E4B" stroke-miterlimit="10" stroke-linecap="round"/>
<path d="M9.29521 13.1535H4.07012C3.68636 13.1535 3.36163 12.8305 3.36163 12.4151V6.96893C3.36163 6.56893 3.6716 6.23047 4.07012 6.23047H9.29521C9.67898 6.23047 10.0037 6.55355 10.0037 6.96893V12.4151C10.0037 12.8305 9.69374 13.1535 9.29521 13.1535Z" stroke="#3C3E4B" stroke-miterlimit="10" stroke-linecap="round"/>
<path d="M11.3321 7.61523H16.6457" stroke="#3C3E4B" stroke-miterlimit="10" stroke-linecap="round"/>
<path d="M3.36163 3.46191H16.6458" stroke="#3C3E4B" stroke-miterlimit="10" stroke-linecap="round"/>
<path d="M11.3321 9H15.3173" stroke="#3C3E4B" stroke-miterlimit="10" stroke-linecap="round"/>
<path d="M11.3321 10.3848H13.9889" stroke="#3C3E4B" stroke-miterlimit="10" stroke-linecap="round"/>
<path d="M11.3321 11.7695H16.6457" stroke="#3C3E4B" stroke-miterlimit="10" stroke-linecap="round"/>
<path d="M3.36163 20.0771H8.67529" stroke="#3C3E4B" stroke-miterlimit="10" stroke-linecap="round"/>
<path d="M3.36163 18.6924H7.34687" stroke="#3C3E4B" stroke-miterlimit="10" stroke-linecap="round"/>
<path d="M3.36163 17.3076H6.01846" stroke="#3C3E4B" stroke-miterlimit="10" stroke-linecap="round"/>
<path d="M3.36163 15.9229H8.67529" stroke="#3C3E4B" stroke-miterlimit="10" stroke-linecap="round"/>
<path d="M16.6457 15.9229H11.3321" stroke="#3C3E4B" stroke-miterlimit="10" stroke-linecap="round"/>
<path d="M16.6458 17.3076H12.6605" stroke="#3C3E4B" stroke-miterlimit="10" stroke-linecap="round"/>
<path d="M16.6457 18.6924H13.9889" stroke="#3C3E4B" stroke-miterlimit="10" stroke-linecap="round"/>
<path d="M16.6457 20.0771H11.3321" stroke="#3C3E4B" stroke-miterlimit="10" stroke-linecap="round"/>
</svg>
