<svg width="20" height="20" viewBox="0 0 20 20" fill="none" xmlns="http://www.w3.org/2000/svg">
<path d="M19.3757 9.375H11.459C11.114 9.375 10.834 9.095 10.834 8.75C10.834 8.405 11.114 8.125 11.459 8.125H19.3757C19.7207 8.125 20.0007 8.405 20.0007 8.75C20.0007 9.095 19.7207 9.375 19.3757 9.375Z" fill="black"/>
<path d="M16.2498 12.5C16.0898 12.5 15.9299 12.4391 15.8081 12.3168C15.564 12.0725 15.564 11.6767 15.8081 11.4325L18.4915 8.74926L15.8081 6.06585C15.564 5.82171 15.564 5.4259 15.8081 5.18176C16.0524 4.93746 16.4482 4.93746 16.6924 5.18176L19.8174 8.30676C20.0615 8.5509 20.0615 8.94671 19.8174 9.19085L16.6924 12.3158C16.5698 12.4391 16.4099 12.5 16.2498 12.5Z" fill="black"/>
<path d="M6.66672 20C6.48834 20 6.31912 19.975 6.15005 19.9225L1.13495 18.2516C0.452576 18.0133 0 17.3775 0 16.6667V1.66672C0 0.747528 0.747528 0 1.66672 0C1.84494 0 2.01416 0.0250244 2.18338 0.0775147L7.19833 1.74835C7.88086 1.98669 8.33328 2.62253 8.33328 3.33328V18.3333C8.33328 19.2525 7.58591 20 6.66672 20ZM1.66672 1.25C1.43753 1.25 1.25 1.43753 1.25 1.66672V16.6667C1.25 16.8442 1.36917 17.0091 1.53915 17.0683L6.53076 18.7317C6.56662 18.7433 6.61331 18.75 6.66672 18.75C6.8959 18.75 7.08328 18.5625 7.08328 18.3333V3.33328C7.08328 3.15582 6.96411 2.99088 6.79413 2.93167L1.80252 1.26831C1.76666 1.25671 1.71997 1.25 1.66672 1.25Z" fill="black"/>
<path d="M12.7076 6.66672C12.3626 6.66672 12.0826 6.38672 12.0826 6.04172V2.29172C12.0826 1.71753 11.6152 1.25 11.041 1.25H1.66602C1.32101 1.25 1.04102 0.970001 1.04102 0.625C1.04102 0.279999 1.32101 0 1.66602 0H11.041C12.3052 0 13.3326 1.02753 13.3326 2.29172V6.04172C13.3326 6.38672 13.0526 6.66672 12.7076 6.66672Z" fill="black"/>
<path d="M11.0424 17.5002H7.70898C7.36398 17.5002 7.08398 17.2202 7.08398 16.8752C7.08398 16.5302 7.36398 16.2502 7.70898 16.2502H11.0424C11.6166 16.2502 12.084 15.7827 12.084 15.2085V11.4585C12.084 11.1135 12.364 10.8335 12.709 10.8335C13.054 10.8335 13.334 11.1135 13.334 11.4585V15.2085C13.334 16.4727 12.3066 17.5002 11.0424 17.5002Z" fill="black"/>
</svg>
