<svg width="21" height="27" viewBox="0 0 21 27" fill="none" xmlns="http://www.w3.org/2000/svg">
<path d="M19.6048 20.258C19.6048 21.4939 18.5774 22.5108 17.3286 22.5108H3.67138C2.42263 22.5108 1.39517 21.4939 1.39517 20.258C1.39517 19.022 2.42263 18.0051 3.67138 18.0051V11.2467C3.67138 8.49325 5.37853 6.09964 7.7812 5.05145C7.70216 4.78549 7.65474 4.50389 7.65474 4.20665C7.65474 2.65783 8.93511 1.39062 10.5 1.39062C12.0649 1.39062 13.3453 2.65783 13.3453 4.20665C13.3453 4.50389 13.2978 4.78549 13.2188 5.05145C15.6373 6.09964 17.3286 8.49325 17.3286 11.2467V18.0051C18.5774 18.0051 19.6048 19.022 19.6048 20.258Z" stroke="#3C3E4B" stroke-miterlimit="10" stroke-linecap="round"/>
<path d="M13.6298 22.5107C13.6298 24.216 12.223 25.6084 10.5 25.6084C8.77703 25.6084 7.37021 24.216 7.37021 22.5107H13.6298Z" stroke="#3C3E4B" stroke-miterlimit="10" stroke-linecap="round"/>
</svg>
